<?xml version="1.0" encoding="utf-8"?>
<!-- Generator: Adobe Illustrator 19.0.0, SVG Export Plug-In . SVG Version: 6.00 Build 0)  -->
<svg version="1.1" id="图层_1" xmlns="http://www.w3.org/2000/svg" xmlns:xlink="http://www.w3.org/1999/xlink" x="0px" y="0px"
	 viewBox="0 0 20 20" style="enable-background:new 0 0 20 20;" xml:space="preserve">
<style type="text/css">
	.st0{fill-rule:evenodd;clip-rule:evenodd;fill:#41475F;}
</style>
<path class="st0" d="M10,0C4.5,0,0,4.5,0,10c0,5.5,4.5,10,10,10s10-4.5,10-10C20,4.5,15.5,0,10,0z M14.3,14
	c-0.1,0.1-0.2,0.1-0.4,0.1c-0.1,0-0.3,0-0.4-0.1l-2-2.1v1.1c0,0.3-0.2,0.5-0.5,0.5s-0.5-0.2-0.5-0.5v-2.8h2.8c0.3,0,0.5,0.2,0.5,0.5
	s-0.2,0.5-0.5,0.5h-1.1l2,2C14.5,13.5,14.5,13.9,14.3,14z M15.1,7.4c-1,0.8-1.7,1.4-2.7,0.4c0,0-0.9-1.1-3.4,1.5
	c-2.2,2.3-1.2,3-1.2,3c0.8,0.7,0.3,1.7-0.5,2.8C6.6,16,6,16.3,5.1,15.8C4.4,15.4,4.2,15,4.2,15c-0.5-0.9-0.3-2.2,0.3-3.3L5,10.9
	c0.8-1.5,3.2-3.8,3.2-3.8c1.6-1.5,5.6-4.6,7.4-2.4C16.5,5.8,16.1,6.6,15.1,7.4z"/>
</svg>
