<?xml version="1.0" encoding="utf-8"?>
<!-- Generator: Adobe Illustrator 19.0.0, SVG Export Plug-In . SVG Version: 6.00 Build 0)  -->
<svg version="1.1" id="图层_1" xmlns="http://www.w3.org/2000/svg" xmlns:xlink="http://www.w3.org/1999/xlink" x="0px" y="0px"
	 viewBox="0 0 20 20" style="enable-background:new 0 0 20 20;" xml:space="preserve">
<style type="text/css">
	.st0{fill-rule:evenodd;clip-rule:evenodd;fill:#41475F;}
</style>
<path class="st0" d="M10,0C4.5,0,0,4.5,0,10s4.5,10,10,10s10-4.5,10-10S15.5,0,10,0z M10.6,8.8l2-2h-1.1c-0.3,0-0.5-0.2-0.5-0.5
	s0.2-0.5,0.5-0.5h2.8v2.8c0,0.3-0.2,0.5-0.5,0.5s-0.5-0.2-0.5-0.5V7.5l-2,2c-0.1,0.1-0.2,0.1-0.4,0.1s-0.3,0-0.4-0.1
	C10.4,9.3,10.4,9,10.6,8.8z M15.8,14.9c-0.4,0.7-0.8,0.9-0.8,0.9c-0.9,0.5-2.2,0.3-3.3-0.3L10.9,15c-1.5-0.8-3.8-3.2-3.8-3.2
	c-1.5-1.6-4.6-5.6-2.4-7.4c1.1-0.9,1.9-0.6,2.7,0.5c0.8,1,1.4,1.7,0.4,2.7c0,0-1.1,0.9,1.5,3.4c2.3,2.2,3,1.2,3,1.2
	c0.7-0.8,1.7-0.3,2.8,0.5C16,13.4,16.3,14,15.8,14.9z"/>
</svg>
