<?xml version="1.0" encoding="utf-8"?>
<!-- Generator: Adobe Illustrator 19.0.0, SVG Export Plug-In . SVG Version: 6.00 Build 0)  -->
<svg version="1.1" id="图层_1" xmlns="http://www.w3.org/2000/svg" xmlns:xlink="http://www.w3.org/1999/xlink" x="0px" y="0px"
	 viewBox="0 0 10 10" style="enable-background:new 0 0 10 10;" xml:space="preserve">
<style type="text/css">
	.st0{fill-rule:evenodd;clip-rule:evenodd;fill:#98A2CC;}
</style>
<path class="st0" d="M5,0C2.2,0,0,2.2,0,5s2.2,5,5,5s5-2.2,5-5S7.8,0,5,0z M7.4,3.4L4.7,6h0.8C5.8,6,6,6.2,6,6.5S5.8,7,5.5,7H4H3V6
	V4.5C3,4.2,3.2,4,3.5,4S4,4.2,4,4.5v0.8l2.6-2.6c0.2-0.2,0.5-0.2,0.7,0S7.5,3.2,7.4,3.4z"/>
</svg>
