<?xml version="1.0" encoding="utf-8"?>
<!-- Generator: Adobe Illustrator 19.0.0, SVG Export Plug-In . SVG Version: 6.00 Build 0)  -->
<svg version="1.1" id="图层_1" xmlns="http://www.w3.org/2000/svg" xmlns:xlink="http://www.w3.org/1999/xlink" x="0px" y="0px"
	 viewBox="0 0 21 21" style="enable-background:new 0 0 21 21;" xml:space="preserve">
<style type="text/css">
	.st0{fill:#FFFFFF;}
</style>
<path class="st0" d="M10.2,21c-0.1,0-0.2,0-0.2,0c0,0,0,0,0,0c-5.2,0-8-2.5-8.1-2.6l-0.7-0.6l1.4-0.4c-2-2.2-2.9-5.2-2.5-8.2
	c0.6-4.9,4.4-8.6,9.3-9.1c3-0.3,6,0.7,8.2,2.7c2.2,2,3.5,5,3.4,8l0,0C20.9,16.4,15.9,21,10.2,21z M9.9,20c5.3,0.2,9.9-4.1,10.1-9.3
	c0.1-2.7-1-5.4-3.1-7.2c-2-1.9-4.7-2.7-7.5-2.5C5.1,1.5,1.6,4.9,1.1,9.3c-0.4,3,0.7,5.9,2.8,8l0.6,0.6l-1.2,0.3
	C4.4,18.9,6.7,20,9.9,20C9.9,20,9.9,20,9.9,20z"/>
<path class="st0" d="M7.2,12c-0.8,0-1.5-0.7-1.5-1.5S6.3,9,7.2,9s1.5,0.7,1.5,1.5S8,12,7.2,12z M7.2,10c-0.3,0-0.5,0.2-0.5,0.5
	S6.9,11,7.2,11s0.5-0.2,0.5-0.5S7.4,10,7.2,10z"/>
<path class="st0" d="M13.8,12c-0.8,0-1.5-0.7-1.5-1.5S13,9,13.8,9s1.5,0.7,1.5,1.5S14.7,12,13.8,12z M13.8,10
	c-0.3,0-0.5,0.2-0.5,0.5s0.2,0.5,0.5,0.5s0.5-0.2,0.5-0.5S14.1,10,13.8,10z"/>
</svg>
