<?xml version="1.0" encoding="utf-8"?>
<!-- Generator: Adobe Illustrator 19.0.0, SVG Export Plug-In . SVG Version: 6.00 Build 0)  -->
<svg version="1.1" id="图层_1" xmlns="http://www.w3.org/2000/svg" xmlns:xlink="http://www.w3.org/1999/xlink" x="0px" y="0px"
	 viewBox="0 0 20 20" style="enable-background:new 0 0 20 20;" xml:space="preserve">
<style type="text/css">
	.st0{fill-rule:evenodd;clip-rule:evenodd;fill:#41475F;}
</style>
<g>
	<path class="st0" d="M10,0C4.5,0,0,4.5,0,10s4.5,10,10,10s10-4.5,10-10S15.5,0,10,0L10,0z M2.4,12c-0.2-0.8-0.1-1.2-0.1-1.2
		c0.3-1,1.3-1.7,2.5-2.1l0.9-0.2c1.6-0.5,5-0.4,5-0.4c2.2,0,7.2,0.8,6.9,3.5c-0.2,1.4-0.9,1.7-2.2,1.5c-1.3-0.2-2.2-0.3-2.2-1.6
		c0,0,0.2-1.4-3.5-1.3c-3.1,0.1-3,1.3-3,1.3c0.1,1.1-1,1.5-2.3,1.6C3.4,13.2,2.7,13,2.4,12L2.4,12z"/>
</g>
</svg>
