<?xml version="1.0" encoding="utf-8"?>
<!-- Generator: Adobe Illustrator 19.0.0, SVG Export Plug-In . SVG Version: 6.00 Build 0)  -->
<svg version="1.1" id="图层_1" xmlns="http://www.w3.org/2000/svg" xmlns:xlink="http://www.w3.org/1999/xlink" x="0px" y="0px"
	 viewBox="0 0 20 18.9" style="enable-background:new 0 0 20 18.9;" xml:space="preserve">
<style type="text/css">
	.st0{fill-rule:evenodd;clip-rule:evenodd;fill:#FFFFFF;}
</style>
<g>
	<path class="st0" d="M15.9,17.3c-0.1-3.2-2-5.8-4.7-7.1c-0.1,0-0.2-0.1-0.3-0.1c1.4-1,2.4-2.7,2.4-4.6c0-3-2.4-5.5-5.3-5.5
		C5,0,2.7,2.5,2.7,5.5c0,1.9,0.9,3.6,2.4,4.6c-2.9,1.2-4.9,3.9-5,7.2c0,0,0,0.1,0,0.1v0.8c0,0.4,0.3,0.7,0.7,0.7
		c0.4,0,0.7-0.3,0.7-0.7v-0.8c0,0,0-0.1,0-0.1c0.1-3.6,3.1-6.5,6.7-6.5c3.6,0,6.6,2.9,6.7,6.5c0,0,0,0.1,0,0.1v0.4c0,0,0,0.1,0,0.1
		h0v0.3c0,0.4,0.3,0.7,0.7,0.7c0.4,0,0.7-0.3,0.7-0.7v-0.8C16,17.4,15.9,17.3,15.9,17.3L15.9,17.3z M3.9,5.5c0-2.3,1.8-4.2,4.1-4.2
		c2.2,0,4.1,1.9,4.1,4.2c0,2.3-1.8,4.2-4.1,4.2C5.8,9.7,3.9,7.8,3.9,5.5L3.9,5.5z"/>
	<path class="st0" d="M20,15.9c0-1.5-0.6-3-1.6-4.2c-0.7-0.8-1.5-1.4-2.5-1.8c1.1-0.8,1.9-2.2,1.9-3.7c0-1.8-1-3.4-2.5-4.1
		C15.2,2,15.1,2,15.1,2c-0.1-0.1-0.3-0.1-0.4-0.2l-0.2-0.1c-0.3-0.1-0.7,0.1-0.9,0.4c-0.1,0.4,0,0.7,0.4,0.9l0.4,0.1v0
		c1.2,0.4,2.1,1.6,2.1,3c0,1.4-0.9,2.6-2.1,3h-0.4c-0.4,0-0.8,0.4-0.8,0.8c0,0.4,0.4,0.8,0.8,0.8h0.4v0c2.4,0.5,4.3,2.6,4.4,5.2
		c0,0,0,0.1,0,0.1v0.3c0,0,0,0.1,0,0.1l0,0.1h0v0.1c0,0.4,0.3,0.7,0.7,0.7c0.4,0,0.7-0.3,0.7-0.7v-0.7C20,16,20,16,20,15.9L20,15.9z
		"/>
</g>
</svg>
