<?xml version="1.0" encoding="utf-8"?>
<!-- Generator: Adobe Illustrator 19.0.0, SVG Export Plug-In . SVG Version: 6.00 Build 0)  -->
<svg version="1.1" id="图层_1" xmlns="http://www.w3.org/2000/svg" xmlns:xlink="http://www.w3.org/1999/xlink" x="0px" y="0px"
	 viewBox="0 0 42 32" style="enable-background:new 0 0 42 32;" xml:space="preserve">
<style type="text/css">
	.st0{fill-rule:evenodd;clip-rule:evenodd;fill:#9DC940;}
	.st1{fill-rule:evenodd;clip-rule:evenodd;fill:#34A6DF;}
</style>
<path class="st0" d="M5.3,18.4c0.1,0,0.3,0.1,0.4,0.1C4.3,22.9,3.4,27.3,4.6,32c0.2-0.5,0.4-1,0.5-1.5C7.5,23,11,16.2,16.6,10.5
	c1.7-1.7,3.6-3.2,5.9-4c1-0.3,2.1-0.4,3.1-0.3c2.5,0.3,5,4.4,5,4.4c-0.2-1.2-0.4-2.4-0.7-3.6C28.6,2.3,24.6,0,19.6,1
	c-3.7,0.7-6.8,2.6-9.5,5.1C4.3,11.4,0.6,17.9,0,25.8c0,0.3,0,0.6,0,0.9c0,0.1,0.1,0.2,0.1,0.5C1.9,24.2,3.6,21.3,5.3,18.4z"/>
<path class="st1" d="M36.7,13.6c-0.1,0-0.3-0.1-0.4-0.1c1.4-4.4,2.3-8.8,1.2-13.5c-0.2,0.5-0.4,1-0.5,1.5C34.5,9,31,15.8,25.4,21.5
	c-1.7,1.7-3.6,3.2-5.9,4c-1,0.3-2.1,0.4-3.1,0.3c-2.5-0.3-5-4.4-5-4.4c0.2,1.2,0.4,2.4,0.7,3.6c1.3,4.8,5.3,7.1,10.4,6.1
	c3.7-0.7,6.8-2.6,9.5-5.1c5.8-5.4,9.4-11.8,10.1-19.8c0-0.3,0-0.6,0-0.9c0-0.1-0.1-0.2-0.1-0.5C40.1,7.8,38.4,10.7,36.7,13.6z"/>
</svg>
