<?xml version="1.0" encoding="utf-8"?>
<!-- Generator: Adobe Illustrator 19.0.0, SVG Export Plug-In . SVG Version: 6.00 Build 0)  -->
<svg version="1.1" id="图层_1" xmlns="http://www.w3.org/2000/svg" xmlns:xlink="http://www.w3.org/1999/xlink" x="0px" y="0px"
	 viewBox="0 0 20 20" style="enable-background:new 0 0 20 20;" xml:space="preserve">
<style type="text/css">
	.st0{fill-rule:evenodd;clip-rule:evenodd;fill:#41475F;}
</style>
<g>
	<circle class="st0" cx="5.5" cy="12.5" r="1"/>
	<circle class="st0" cx="10" cy="5" r="1"/>
	<circle class="st0" cx="14.5" cy="12.5" r="1"/>
	<path class="st0" d="M10,0C4.5,0,0,4.5,0,10s4.5,10,10,10s10-4.5,10-10S15.5,0,10,0z M12.6,5.7c0.2-0.2,0.5-0.3,0.7-0.1
		c1.1,0.8,1.8,2,2.1,3.3c0.1,0.3-0.1,0.5-0.4,0.6c0,0-0.1,0-0.1,0c-0.2,0-0.4-0.2-0.5-0.4c-0.2-1.1-0.8-2-1.7-2.7
		C12.5,6.2,12.4,5.9,12.6,5.7z M10,3c1.1,0,2,0.9,2,2s-0.9,2-2,2S8,6.1,8,5S8.9,3,10,3z M4.6,8.9c0.3-1.3,1-2.5,2.1-3.3
		c0.2-0.2,0.5-0.1,0.7,0.1c0.2,0.2,0.1,0.5-0.1,0.7C6.4,7.1,5.8,8,5.6,9.1c0,0.2-0.3,0.4-0.5,0.4c0,0-0.1,0-0.1,0
		C4.7,9.4,4.6,9.2,4.6,8.9z M5.5,14.5c-1.1,0-2-0.9-2-2s0.9-2,2-2s2,0.9,2,2S6.6,14.5,5.5,14.5z M12.2,15c-0.4,0.2-0.7,0.3-1.1,0.3
		c-0.4,0.1-0.7,0.1-1.1,0.1s-0.7,0-1.1-0.1c-0.4-0.1-0.7-0.2-1.1-0.3c-0.3-0.1-0.4-0.4-0.3-0.7c0.1-0.3,0.4-0.4,0.7-0.3
		c0.3,0.1,0.6,0.2,0.9,0.3c0.6,0.1,1.2,0.1,1.8,0c0.3-0.1,0.6-0.2,0.9-0.3c0.3-0.1,0.5,0,0.7,0.3C12.6,14.6,12.5,14.9,12.2,15z
		 M14.5,14.5c-1.1,0-2-0.9-2-2s0.9-2,2-2s2,0.9,2,2S15.6,14.5,14.5,14.5z"/>
</g>
</svg>
