<?xml version="1.0" encoding="utf-8"?>
<!-- Generator: Adobe Illustrator 19.0.0, SVG Export Plug-In . SVG Version: 6.00 Build 0)  -->
<svg version="1.1" id="图层_1" xmlns="http://www.w3.org/2000/svg" xmlns:xlink="http://www.w3.org/1999/xlink" x="0px" y="0px"
	 viewBox="0 0 33 33" style="enable-background:new 0 0 33 33;" xml:space="preserve">
<style type="text/css">
	.st0{fill:#98A2CC;}
	.st1{fill:#8591C2;}
	.st2{fill:#FFE05C;}
	.st3{fill:#FEE9B4;}
	.st4{fill:#FFFCFD;}
	.st5{fill:#F11B5F;}
	.st6{fill:#FFE116;}
	.st7{fill:#FCFFFF;}
	.st8{fill:#FFE0BB;}
	.st9{fill:#F2BA30;}
	.st10{fill:#380F08;}
	.st11{fill:#8F1900;}
	.st12{fill:#F492AC;}
</style>
<g>
	<circle class="st0" cx="16.5" cy="16.5" r="16"/>
	<path class="st1" d="M16.5,33C7.4,33,0,25.6,0,16.5S7.4,0,16.5,0S33,7.4,33,16.5S25.6,33,16.5,33z M16.5,1C8,1,1,8,1,16.5
		S8,32,16.5,32S32,25,32,16.5S25,1,16.5,1z"/>
</g>
<g>
	<g>
		<g>
			<g>
				<path class="st2" d="M11.2,25.5c0.1,0,0.2-0.1,0.2-0.2c0-0.1-0.1-0.2-0.2-0.2c-0.1,0-0.2,0.1-0.2,0.2
					C11,25.4,11.1,25.5,11.2,25.5z M7.4,26.4c0-2.7,2.5-2.7,2.5-2.7s2.5,0.1,2.5,2.8C12.5,28.9,7.4,28.6,7.4,26.4z M8.6,25.2
					c0,0.1,0.1,0.2,0.2,0.2c0.1,0,0.2-0.1,0.2-0.2C9,25.1,8.9,25,8.8,25C8.7,25,8.6,25.1,8.6,25.2z M11.5,25.6
					c-0.2,0-0.3,0.1-0.3,0.2c0,0.1,0.1,0.2,0.3,0.2c0.2,0,0.3-0.1,0.3-0.2C11.8,25.7,11.7,25.6,11.5,25.6z M8.4,25.7
					c-0.2,0-0.3,0.1-0.3,0.2C8.1,26,8.2,26,8.4,26c0.2,0,0.3-0.1,0.3-0.2C8.7,25.7,8.5,25.7,8.4,25.7z"/>
				<path class="st3" d="M19.4,25.9c-0.1-0.7-0.4-2.1-0.7-2.7c0.2,0,0.4-0.1,0.7-0.2c0.6,0.7,1.5,1.9,0.7,2.7
					C20,25.7,19.9,26,19.4,25.9z"/>
				<path class="st3" d="M14.3,23.1c-0.2,0.6-0.6,2-0.8,2.7c-0.3,0.1-0.6,0-0.8-0.6c-0.3-0.9,0.6-1.9,1.1-2.3
					C14,23.1,14.1,23.1,14.3,23.1z"/>
				<path class="st3" d="M18.1,28.2c-0.9-0.1-1-1.2-1-1.9l2.4,0C19.7,27,19.4,28.3,18.1,28.2z"/>
				<path class="st3" d="M13.4,26.4l2.4,0c0,0.7-0.2,1.8-1.1,1.9C13.4,28.3,13.2,27,13.4,26.4z"/>
				<path class="st4" d="M17.1,26.4l-1.3,0l-2.4,0c0-0.1,0-0.3,0.1-0.5c0.2-0.8,0.6-2.1,0.8-2.7c0.7,0.1,1.4,0.2,2.2,0.2
					c0.7,0,1.5-0.1,2.1-0.2c0.3,0.7,0.6,2,0.7,2.7c0.1,0.3,0.1,0.5,0.1,0.5L17.1,26.4z"/>
				<path class="st5" d="M18.7,2.9c0.9,0.6,0.2,1.7-0.3,2.4c-0.6-0.1-1.2-0.2-1.9-0.2c0-0.2,0-0.5-0.1-0.9
					C16.9,3.5,17.8,2.2,18.7,2.9z"/>
				<path class="st5" d="M16.5,4.2c0.1,0.3,0.1,0.6,0.1,0.9c0,0,0,0-0.1,0c-0.8,0-1.6,0.1-2.3,0.3c-0.4-0.4-0.9-1.2-0.5-1.9
					c0.7-1,1.6-0.7,2.3-0.1C16.3,3.6,16.4,3.9,16.5,4.2z"/>
				<path class="st6" d="M18.8,10.5C18.8,10.5,18.8,10.6,18.8,10.5c0.1,0.1-1.3,1.8-2.4,1.8c-1.1-0.1-2.1-1.3-2.3-1.8
					c0,0,0-0.1,0-0.1c0,0,1.2-1.6,2.4-1.6C17.5,8.8,18.3,9.8,18.8,10.5z"/>
				<path class="st7" d="M19.3,23c-0.2,0.1-0.4,0.1-0.7,0.2c-0.7,0.1-1.4,0.2-2.1,0.2c-0.7,0-1.5-0.1-2.2-0.2
					c-0.2,0-0.4-0.1-0.5-0.1c-4.1-1.1-7.1-4.6-7.1-8.8c0-4.3,3.2-7.9,7.5-8.9c0.7-0.2,1.5-0.3,2.3-0.3c0,0,0,0,0.1,0
					c0.6,0,1.3,0.1,1.9,0.2c4.5,0.8,7.9,4.5,7.9,9C26.3,18.4,23.3,21.9,19.3,23z M16.4,22.7c4.2,0,7.6-2.8,7.6-6.3
					c0-2.8-2.2-5.1-5.2-6c-0.5-0.7-1.2-1.7-2.4-1.7c-1.2,0-2.4,1.6-2.4,1.6c0,0,0,0.1,0,0.1c-3,0.8-5.2,3.2-5.2,6
					C8.8,19.9,12.2,22.7,16.4,22.7z"/>
				<path class="st8" d="M18.8,10.5c3,0.8,5.2,3.2,5.2,6c0,3.5-3.4,6.3-7.6,6.3c-4.2,0-7.6-2.8-7.6-6.3c0-2.8,2.2-5.1,5.2-6
					c0.3,0.5,1.3,1.7,2.3,1.8C17.5,12.3,18.9,10.6,18.8,10.5C18.8,10.6,18.8,10.5,18.8,10.5z"/>
				<path class="st9" d="M11.8,25.8c0,0.1-0.1,0.2-0.3,0.2c-0.2,0-0.3-0.1-0.3-0.2c0-0.1,0.1-0.2,0.3-0.2
					C11.7,25.6,11.8,25.7,11.8,25.8z"/>
				<ellipse class="st10" cx="11.2" cy="25.2" rx="0.2" ry="0.2"/>
				<ellipse class="st10" cx="8.8" cy="25.2" rx="0.2" ry="0.2"/>
				<ellipse class="st9" cx="8.4" cy="25.9" rx="0.3" ry="0.2"/>
				<path class="st2" d="M24.2,25.6c0.1,0,0.2-0.1,0.2-0.2c0-0.1-0.1-0.2-0.2-0.2c-0.1,0-0.2,0.1-0.2,0.2C24,25.5,24,25.6,24.2,25.6
					z M20.4,26.6c0-2.7,2.5-2.7,2.5-2.7s2.5,0.1,2.5,2.8C25.5,29.1,20.4,28.8,20.4,26.6z M21.6,25.4c0,0.1,0.1,0.2,0.2,0.2
					c0.1,0,0.2-0.1,0.2-0.2c0-0.1-0.1-0.2-0.2-0.2C21.7,25.2,21.6,25.3,21.6,25.4z M24.5,25.8c-0.2,0-0.3,0.1-0.3,0.2
					c0,0.1,0.1,0.2,0.3,0.2c0.2,0,0.3-0.1,0.3-0.2C24.8,25.9,24.7,25.8,24.5,25.8z M21.4,25.8c-0.2,0-0.3,0.1-0.3,0.2
					c0,0.1,0.1,0.2,0.3,0.2c0.2,0,0.3-0.1,0.3-0.2C21.7,25.9,21.5,25.8,21.4,25.8z"/>
				<path class="st9" d="M24.8,26c0,0.1-0.1,0.2-0.3,0.2c-0.2,0-0.3-0.1-0.3-0.2c0-0.1,0.1-0.2,0.3-0.2C24.7,25.8,24.8,25.9,24.8,26
					z"/>
				<ellipse class="st10" cx="24.2" cy="25.4" rx="0.2" ry="0.2"/>
				<ellipse class="st10" cx="21.8" cy="25.4" rx="0.2" ry="0.2"/>
				<ellipse class="st9" cx="21.4" cy="26" rx="0.3" ry="0.2"/>
			</g>
			<g>
				<g>
					<path class="st11" d="M14.2,5.2c-4.5,1-7.7,4.7-7.7,9.1c0,4.1,3,7.8,7.2,9l0.6,0.1c0.7,0.2,1.5,0.2,2.2,0.2
						c0.7,0,1.5-0.1,2.2-0.2c0,0,0.7-0.2,0.7-0.2c4.2-1.2,7.2-4.8,7.2-8.9c0-4.4-3.4-8.3-8-9.2c-0.6-0.1-1.3-0.2-1.9-0.2h-0.1
						C15.7,4.9,14.9,5,14.2,5.2z M14.4,23c0,0-0.5-0.1-0.5-0.1c-4.1-1.1-6.9-4.6-6.9-8.6c0-4.2,3-7.7,7.4-8.7
						c0.7-0.2,1.5-0.2,2.3-0.2h0.1c0.6,0,1.2,0.1,1.8,0.2l0,0c4.5,0.8,7.7,4.5,7.7,8.8c0,3.9-2.8,7.5-6.9,8.6c0,0-0.6,0.2-0.6,0.2
						c-0.7,0.1-1.4,0.2-2.1,0.2C15.8,23.2,15.1,23.1,14.4,23z M18.5,5.1L18.5,5.1C18.5,5.1,18.5,5.1,18.5,5.1z"/>
				</g>
				<g>
					<path class="st11" d="M8.7,16.5c0,3.5,3.5,6.4,7.7,6.4c4.3,0,7.7-2.9,7.7-6.4c0-2.8-2.1-5.2-5.3-6.1l-0.1,0.3
						c3,0.8,5.1,3.2,5.1,5.8c0,3.4-3.3,6.1-7.4,6.1c-4.1,0-7.4-2.7-7.4-6.1c0-2.6,2-5,5.1-5.8L14,10.4C10.8,11.2,8.7,13.7,8.7,16.5z
						"/>
				</g>
				<g>
					<path class="st11" d="M18.5,23.2c0.3,0.6,0.6,1.9,0.7,2.7c0,0,0,0.1,0,0.2c-0.4,0-5.2,0.1-5.6,0.1c0-0.1,0-0.2,0.1-0.3
						c0.2-0.7,0.6-1.9,0.8-2.7l-0.4-0.1c-0.1,0.2-0.6,1.9-0.8,2.7c-0.1,0.4-0.1,0.5-0.1,0.6v0.2l6.5-0.1l-0.1-0.7
						c-0.2-0.9-0.4-2.1-0.7-2.8L18.5,23.2z"/>
				</g>
				<g>
					<path class="st11" d="M12.5,25.4c0.3,0.8,0.8,0.8,1.1,0.7l-0.1-0.4c-0.1,0-0.4,0.1-0.6-0.5c-0.3-0.8,0.6-1.7,1-2.1l-0.3-0.3
						C13.1,23.4,12.2,24.4,12.5,25.4z"/>
				</g>
				<g>
					<path class="st11" d="M19.2,23.1c0.5,0.5,1.4,1.8,0.7,2.4l0,0l0,0c0,0.1-0.1,0.1-0.4,0.1l-0.1,0.4c0.6,0.2,0.8-0.2,0.9-0.3
						c0.2-0.2,0.3-0.5,0.3-0.8c0-0.6-0.4-1.3-1.1-2.1L19.2,23.1z"/>
				</g>
				<g>
					<path class="st11" d="M13.5,28c0.2,0.2,0.5,0.5,1.2,0.5c0.8,0,1.2-0.8,1.3-2.1l-0.4,0c0,0.6-0.2,1.6-0.9,1.7
						c-0.4,0-0.7-0.1-0.8-0.3c-0.3-0.4-0.3-1-0.2-1.3l-0.4-0.1C13.1,26.8,13.1,27.5,13.5,28z"/>
				</g>
				<g>
					<path class="st11" d="M19.3,26.4c0.1,0.3,0.1,0.9-0.2,1.3c-0.2,0.3-0.5,0.4-1,0.4c-0.7,0-0.9-0.9-0.8-1.7l-0.4,0
						c0,1.3,0.4,2,1.2,2.1c0.7,0,1.1-0.3,1.3-0.6c0.4-0.5,0.4-1.2,0.2-1.6L19.3,26.4z"/>
				</g>
				<g>
					<path class="st11" d="M13.9,10.3L13.9,10.3l0,0.2l0,0c0.3,0.5,1.3,1.8,2.4,1.8c1.2,0.1,2.5-1.7,2.6-1.7l0.1-0.1l-0.1-0.2
						c-0.5-0.7-1.3-1.8-2.5-1.8C15.2,8.7,14,10.3,13.9,10.3z M16.4,8.9c1.1,0,1.8,1,2.3,1.7c0,0,0,0,0,0c-0.2,0.3-1.4,1.6-2.3,1.6
						c-1-0.1-2-1.3-2.2-1.7c0,0,0,0,0,0C14.4,10.2,15.4,8.9,16.4,8.9z"/>
				</g>
				<g>
					<path class="st11" d="M14.6,2.6c-0.4,0.1-0.8,0.3-1.1,0.7c-0.4,0.6-0.2,1.4,0.5,2.2l0.3-0.3c-0.3-0.4-0.9-1.1-0.5-1.7
						c0.2-0.3,0.5-0.5,0.8-0.6c0.4,0,0.8,0.1,1.3,0.5c0.2,0.2,0.3,0.4,0.4,0.8c0,0.2,0.1,0.5,0.1,0.8l0.4,0c0-0.3,0-0.6-0.1-0.9
						c-0.1-0.4-0.3-0.8-0.5-1C15.7,2.7,15.1,2.5,14.6,2.6z"/>
				</g>
				<g>
					<path class="st11" d="M17.9,2.5c-0.7,0.2-1.2,1-1.6,1.6l0.3,0.2C17.1,3.5,17.6,3,18,2.9c0.2,0,0.4,0,0.5,0.1
						c0.2,0.1,0.3,0.3,0.3,0.5c0.1,0.4-0.2,1-0.6,1.6l0.3,0.2c0.4-0.5,0.8-1.2,0.7-1.9c0-0.3-0.2-0.6-0.5-0.8
						C18.5,2.5,18.2,2.5,17.9,2.5z"/>
				</g>
				<g>
					<path class="st11" d="M10,23.5c0,0-2.7,0.1-2.7,2.9c0,1.3,1.5,1.9,2.8,1.9c0.7,0,1.3-0.2,1.8-0.4c0.5-0.3,0.8-0.8,0.8-1.4
						C12.7,23.6,10,23.5,10,23.5L10,23.5z M7.6,26.4L7.6,26.4c0-2.5,2.3-2.6,2.4-2.6c0.1,0,2.4,0.1,2.4,2.6c0,0.5-0.2,0.9-0.7,1.2
						c-0.4,0.3-1,0.4-1.6,0.4C8.9,28,7.6,27.5,7.6,26.4z"/>
				</g>
				<g>
					<path class="st11" d="M23.1,23.7c0,0-2.7,0.1-2.7,2.9c0,1.3,1.5,1.9,2.8,1.9c0.7,0,1.3-0.2,1.8-0.4c0.5-0.3,0.8-0.8,0.8-1.4
						C25.8,23.8,23.2,23.7,23.1,23.7L23.1,23.7z M20.7,26.6c0-2.5,2.3-2.6,2.4-2.6c0.1,0,2.4,0.1,2.4,2.6c0,0.5-0.2,0.9-0.7,1.2
						c-0.4,0.3-1,0.4-1.6,0.4C22,28.2,20.7,27.6,20.7,26.6z"/>
				</g>
			</g>
		</g>
		<g>
			<circle class="st11" cx="20.6" cy="15.4" r="0.6"/>
			<circle class="st11" cx="12.3" cy="15.4" r="0.6"/>
			<path class="st11" d="M11.3,8.5l1.6,0.1c0,0-0.1,0.8-0.9,0.8C11.2,9.3,11.3,8.5,11.3,8.5z"/>
			<path class="st11" d="M21.8,8.5l-1.6,0.1c0,0,0.1,0.8,0.9,0.8C21.9,9.3,21.8,8.5,21.8,8.5z"/>
			<ellipse class="st12" cx="10.3" cy="17.3" rx="1.3" ry="0.7"/>
			<ellipse class="st12" cx="22.6" cy="17.3" rx="1.3" ry="0.8"/>
		</g>
	</g>
	<g>
		<path class="st11" d="M13.8,10.6c0,0.1,0.1,0.1,0.1,0.1l4.7,0c0.1,0,0.1-0.1,0.1-0.1c0-0.1-0.1-0.1-0.1-0.1l-4.7,0
			C13.9,10.4,13.8,10.5,13.8,10.6z"/>
	</g>
</g>
</svg>
