<?xml version="1.0" encoding="utf-8"?>
<!-- Generator: Adobe Illustrator 19.0.0, SVG Export Plug-In . SVG Version: 6.00 Build 0)  -->
<svg version="1.1" id="图层_1" xmlns="http://www.w3.org/2000/svg" xmlns:xlink="http://www.w3.org/1999/xlink" x="0px" y="0px"
	 viewBox="0 0 17.3 20.1" style="enable-background:new 0 0 17.3 20.1;" xml:space="preserve">
<style type="text/css">
	.st0{fill-rule:evenodd;clip-rule:evenodd;fill:#45C8DC;}
	.st1{fill:#45C8DC;}
</style>
<circle class="st0" cx="11.8" cy="13.2" r="0.5"/>
<path class="st1" d="M7.6,1.9L0.5,9l9.2,9.2l7.1-7.1L7.6,1.9z M7.6,3.3L13.2,9l-5.7,5.7L1.9,9L7.6,3.3z M8.3,15.3l5.7-5.7l1.4,1.4
	l-5.7,5.7L8.3,15.3z"/>
<path class="st1" d="M6.2,20.1c-0.3,0-0.5-0.2-0.5-0.5v-2.3H2.8v-2.8H0v-3.3c0-0.3,0.2-0.5,0.5-0.5S1,10.8,1,11.1v2.3h2.8v2.8h2.8
	v3.3C6.7,19.9,6.4,20.1,6.2,20.1z"/>
<path class="st1" d="M16.8,9.5c-0.3,0-0.5-0.2-0.5-0.5V6.7h-2.8V3.8h-2.8V0.5c0-0.3,0.2-0.5,0.5-0.5s0.5,0.2,0.5,0.5v2.3h2.8v2.8
	h2.8V9C17.3,9.3,17,9.5,16.8,9.5z"/>
</svg>
