<?xml version="1.0" encoding="utf-8"?>
<!-- Generator: Adobe Illustrator 19.0.0, SVG Export Plug-In . SVG Version: 6.00 Build 0)  -->
<svg version="1.1" id="图层_1" xmlns="http://www.w3.org/2000/svg" xmlns:xlink="http://www.w3.org/1999/xlink" x="0px" y="0px"
	 viewBox="0 0 15 15" style="enable-background:new 0 0 15 15;" xml:space="preserve">
<style type="text/css">
	.st0{fill:#FF2D86;}
</style>
<path class="st0" d="M7.5,15C3.4,15,0,11.6,0,7.5S3.4,0,7.5,0S15,3.4,15,7.5S11.6,15,7.5,15z M7.5,1C3.9,1,1,3.9,1,7.5
	S3.9,14,7.5,14S14,11.1,14,7.5S11.1,1,7.5,1z"/>
<path class="st0" d="M7.5,9.9C7.2,9.9,7,9.7,7,9.4V3.2C7,3,7.2,2.7,7.5,2.7S8,3,8,3.2v6.2C8,9.7,7.8,9.9,7.5,9.9z"/>
<circle class="st0" cx="7.4" cy="11.5" r="0.5"/>
</svg>
