<?xml version="1.0" encoding="utf-8"?>
<!-- Generator: Adobe Illustrator 19.0.0, SVG Export Plug-In . SVG Version: 6.00 Build 0)  -->
<svg version="1.1" id="图层_1" xmlns="http://www.w3.org/2000/svg" xmlns:xlink="http://www.w3.org/1999/xlink" x="0px" y="0px"
	 viewBox="0 0 18.9 9.3" style="enable-background:new 0 0 18.9 9.3;" xml:space="preserve">
<style type="text/css">
	.st0{fill:#98A2CC;}
</style>
<path class="st0" d="M9.2,1L9.2,1c3.6,0,7,1.7,8,3.2c0.7,1,0.8,2.1,0.3,2.9c-0.4,0.7-1.3,1.2-2.2,1.2c-0.1,0-0.1,0-0.2,0
	c-0.9-0.1-1.6-0.6-2-1.5c-0.3-0.7-0.1-1.6,0-2L13.5,4l-0.8-0.4C11.8,3.2,10.8,3,9.6,3C8,3,6.6,3.5,6.2,3.6l-1,0.4l0.4,1
	C5.8,5.3,6,6.2,5.6,7C4.9,8.1,4.1,8.3,3.5,8.3c-0.4,0-0.7-0.1-1-0.2c-1-0.5-1.8-1.7-1.2-3.2c1-2.5,4.4-3.6,7.2-3.8
	C8.7,1,8.9,1,9.2,1 M9.2,0C8.9,0,8.6,0,8.3,0c-3.1,0.2-6.8,1.5-8,4.5c0,0,0,0,0,0C-0.5,6.5,0.5,8.3,2,9c0.4,0.2,1,0.3,1.5,0.3
	c1.1,0,2.2-0.5,3-1.9c0.6-1.1,0.4-2.2,0.1-2.9C7.2,4.3,8.4,4,9.6,4c0.9,0,1.8,0.1,2.6,0.5c-0.2,0.6-0.3,1.7,0.1,2.7
	c0.5,1.2,1.6,2,2.8,2.1c0.1,0,0.2,0,0.2,0c1.2,0,2.4-0.7,3-1.7C19.1,6.5,19,5,18.1,3.7C16.9,1.8,13.2,0,9.2,0L9.2,0z"/>
</svg>
