<?xml version="1.0" encoding="utf-8"?>
<!-- Generator: Adobe Illustrator 19.0.0, SVG Export Plug-In . SVG Version: 6.00 Build 0)  -->
<svg version="1.1" id="图层_1" xmlns="http://www.w3.org/2000/svg" xmlns:xlink="http://www.w3.org/1999/xlink" x="0px" y="0px"
	 viewBox="0 0 12 12" style="enable-background:new 0 0 12 12;" xml:space="preserve">
<style type="text/css">
	.st0{fill:#999999;}
</style>
<path class="st0" d="M6,0C2.7,0,0,2.7,0,6s2.7,6,6,6s6-2.7,6-6S9.3,0,6,0z M9.4,8.6c0.2,0.2,0.2,0.5,0,0.7C9.3,9.5,9.1,9.5,9,9.5
	s-0.3,0-0.4-0.1L6,6.7L3.4,9.4C3.3,9.5,3.1,9.5,3,9.5s-0.3,0-0.4-0.1c-0.2-0.2-0.2-0.5,0-0.7L5.3,6L2.6,3.4c-0.2-0.2-0.2-0.5,0-0.7
	s0.5-0.2,0.7,0L6,5.3l2.6-2.6c0.2-0.2,0.5-0.2,0.7,0s0.2,0.5,0,0.7L6.7,6L9.4,8.6z"/>
</svg>
