<?xml version="1.0" encoding="utf-8"?>
<!-- Generator: Adobe Illustrator 19.0.0, SVG Export Plug-In . SVG Version: 6.00 Build 0)  -->
<svg version="1.1" id="图层_1" xmlns="http://www.w3.org/2000/svg" xmlns:xlink="http://www.w3.org/1999/xlink" x="0px" y="0px"
	 viewBox="0 0 12 12" style="enable-background:new 0 0 12 12;" xml:space="preserve">
<style type="text/css">
	.st0{fill:#45C8DC;}
</style>
<path class="st0" d="M6,0C2.7,0,0,2.7,0,6s2.7,6,6,6s6-2.7,6-6S9.3,0,6,0z M9.9,3.9l-5,5C4.8,9,4.6,9,4.5,9S4.2,9,4.1,8.9l-2-2
	C2,6.7,2,6.3,2.1,6.1s0.5-0.2,0.7,0l1.6,1.6l4.6-4.6C9.3,3,9.7,3,9.9,3.1S10,3.7,9.9,3.9z"/>
</svg>
