<?xml version="1.0" encoding="utf-8"?>
<!-- Generator: Adobe Illustrator 19.0.0, SVG Export Plug-In . SVG Version: 6.00 Build 0)  -->
<svg version="1.1" id="图层_1" xmlns="http://www.w3.org/2000/svg" xmlns:xlink="http://www.w3.org/1999/xlink" x="0px" y="0px"
	 viewBox="0 0 20 21.4" style="enable-background:new 0 0 20 21.4;" xml:space="preserve">
<style type="text/css">
	.st0{fill-rule:evenodd;clip-rule:evenodd;fill:#FFFFFF;}
</style>
<g>
	<path class="st0" d="M17.7,7.9c-0.2,0-0.3,0-7.3,3.1l0.9-7.7c0.1-0.4-0.2-0.8-0.6-0.8c-0.4,0-0.8-0.1-1.2-0.1
		c-4.8,0-8.9,3.6-9.5,8.4c-0.6,5.2,3.1,10,8.3,10.6c0.4,0,0.8,0.1,1.2,0.1l0,0c4.8,0,8.9-3.6,9.5-8.4c0.2-1.6,0-3.2-0.6-4.7
		C18.3,8,18,7.9,17.7,7.9L17.7,7.9z M17.6,12.8c-0.5,4-3.9,7.1-8,7.1c-0.3,0-0.7,0-1-0.1c-4.4-0.5-7.6-4.6-7-9c0.5-4,3.9-7.1,8-7.1
		c0.1,0,0.2,0,0.3,0l-1,8.3c0,0.3,0.1,0.5,0.3,0.7c0.2,0.2,0.5,0.2,0.7,0.1c2.4-1.1,6-2.6,7.5-3.3C17.6,10.6,17.7,11.7,17.6,12.8
		L17.6,12.8z"/>
	<path class="st0" d="M20,4.8c-1.1-2.6-3.6-4.5-6.4-4.8c-0.2,0-0.5,0.1-0.5,0.4l-0.9,7.5c0,0.2,0,0.3,0.2,0.4
		c0.1,0.1,0.2,0.1,0.3,0.1c0.1,0,0.1,0,0.2,0l7-2.9c0.1,0,0.2-0.1,0.2-0.2C20,5.1,20,4.9,20,4.8L20,4.8z"/>
</g>
</svg>
