<?xml version="1.0" encoding="utf-8"?>
<!-- Generator: Adobe Illustrator 19.0.0, SVG Export Plug-In . SVG Version: 6.00 Build 0)  -->
<svg version="1.1" id="图层_1" xmlns="http://www.w3.org/2000/svg" xmlns:xlink="http://www.w3.org/1999/xlink" x="0px" y="0px"
	 viewBox="0 0 20 20" style="enable-background:new 0 0 20 20;" xml:space="preserve">
<style type="text/css">
	.st0{fill-rule:evenodd;clip-rule:evenodd;fill:#41475F;}
</style>
<g>
	<path class="st0" d="M14.9,7h-2.7c-0.3,0-0.6-0.1-0.8-0.3L8.9,5.1C8.8,5,8.7,5,8.6,5H5.9C5.6,5,5.4,5.2,5.4,5.5v9
		c0,0.3,0.2,0.5,0.5,0.5h9c0.3,0,0.5-0.2,0.5-0.5v-7C15.4,7.2,15.2,7,14.9,7z M13.3,10.8l-2,2C11.2,12.9,11,13,10.9,13
		s-0.3,0-0.4-0.1c-0.2-0.2-0.2-0.5,0-0.7l1.1-1.1H7.9c-0.3,0-0.5-0.2-0.5-0.5S7.6,10,7.9,10h3.8l-1.1-1.1c-0.2-0.2-0.2-0.5,0-0.7
		s0.5-0.2,0.7,0l2,2l0,0l0.4,0.4L13.3,10.8L13.3,10.8z"/>
	<path class="st0" d="M10,0C4.5,0,0,4.5,0,10c0,5.5,4.5,10,10,10c5.5,0,10-4.5,10-10C20,4.5,15.5,0,10,0z M16.4,14.5
		c0,0.8-0.7,1.5-1.5,1.5h-9c-0.8,0-1.5-0.7-1.5-1.5v-9C4.4,4.6,5.1,4,5.9,4h2.7c0.3,0,0.6,0.1,0.8,0.3l2.5,1.7C12,5.9,12.1,6,12.2,6
		h2.7c0.8,0,1.5,0.7,1.5,1.5V14.5z"/>
</g>
</svg>
