<?xml version="1.0" encoding="utf-8"?>
<!-- Generator: Adobe Illustrator 19.0.0, SVG Export Plug-In . SVG Version: 6.00 Build 0)  -->
<svg version="1.1" id="图层_1" xmlns="http://www.w3.org/2000/svg" xmlns:xlink="http://www.w3.org/1999/xlink" x="0px" y="0px"
	 viewBox="0 0 22 17.1" style="enable-background:new 0 0 22 17.1;" xml:space="preserve">
<style type="text/css">
	.st0{fill-rule:evenodd;clip-rule:evenodd;fill:#FFFFFF;}
</style>
<g>
	<path class="st0" d="M3,15.1c0,0.6,0.4,1.1,0.9,1.1h0.3c0.5,0,0.9-0.5,0.9-1.1V7.3c0-0.6-0.4-1.1-0.9-1.1H3.9C3.4,6.2,3,6.7,3,7.3
		L3,15.1L3,15.1L3,15.1z"/>
	<path class="st0" d="M16.9,15.1c0,0.6,0.4,1.1,0.9,1.1h0.3c0.5,0,0.9-0.5,0.9-1.1V7.3c0-0.6-0.4-1.1-0.9-1.1h-0.3
		c-0.5,0-0.9,0.5-0.9,1.1V15.1L16.9,15.1z"/>
	<path class="st0" d="M2.4,6.5v9.3C1,15.5,0,14,0,12.2v-2C0,8.4,1,6.9,2.4,6.5L2.4,6.5z"/>
	<path class="st0" d="M19.6,6.5v9.3C21,15.5,22,14,22,12.2v-2C22,8.4,21,6.9,19.6,6.5L19.6,6.5z"/>
	<path class="st0" d="M4.2,8.8c0-0.1,0-0.1,0-0.2c0-4.2,3-7.1,6.7-7.1c3.7,0,6.7,2.9,6.7,7.1c0,0.1,0,0.1,0,0.2h0.6
		c0-0.2,0-0.5,0-0.7c0-4.6-3.3-8-7.3-8c-4,0-7.3,3.4-7.3,8c0,0.3,0,0.5,0,0.7H4.2L4.2,8.8z"/>
	<path class="st0" d="M12.8,16.7c1.1,0.5,3.1,0.8,5.5-0.5h-0.5c0,0-2.1,1.4-4.9,0.3L12.8,16.7z"/>
	<path class="st0" d="M12.2,16.3 M11.5,16.3c0,0.4,0.3,0.7,0.7,0.7c0.4,0,0.7-0.3,0.7-0.7s-0.3-0.7-0.7-0.7
		C11.8,15.6,11.5,15.9,11.5,16.3"/>
</g>
</svg>
