<?xml version="1.0" encoding="utf-8"?>
<!-- Generator: Adobe Illustrator 19.0.0, SVG Export Plug-In . SVG Version: 6.00 Build 0)  -->
<svg version="1.1" id="图层_1" xmlns="http://www.w3.org/2000/svg" xmlns:xlink="http://www.w3.org/1999/xlink" x="0px" y="0px"
	 viewBox="0 0 219.5 104.4" style="enable-background:new 0 0 219.5 104.4;" xml:space="preserve">
<style type="text/css">
	.st0{fill:#98A2CC;}
	.st1{fill:#EDF2BE;}
	.st2{fill:#FEFFFF;}
	.st3{fill:#FFEBD9;}
	.st4{fill:#FFFEFD;}
	.st5{fill:#F27725;}
	.st6{fill:#8F1900;}
	.st7{fill:#F6E23E;}
	.st8{fill:#F492AC;}
	.st9{fill:#881400;}
	.st10{font-family:'YouYuan';}
	.st11{font-size:18px;}
</style>
<path class="st0" d="M200.2,42.9c-0.1,0-0.3,0-0.4-0.1c-0.5-0.2-0.7-0.8-0.5-1.3c0.5-1.1,0.7-2.2,0.7-3.4c0-4.9-4-8.8-8.8-8.8
	c-2.3,0-4.4,0.9-6,2.4c-0.4,0.4-1,0.4-1.4,0c-0.4-0.4-0.4-1,0-1.4c2-1.9,4.6-2.9,7.4-2.9c6,0,10.8,4.9,10.8,10.8
	c0,1.5-0.3,2.9-0.9,4.2C201,42.6,200.6,42.9,200.2,42.9z"/>
<path class="st0" d="M197.5,41.7c-0.1,0-0.3,0-0.4-0.1c-0.5-0.2-0.7-0.8-0.5-1.3c0.3-0.7,0.5-1.5,0.5-2.3c0-1.2-0.4-2.4-1.1-3.4
	c-0.3-0.4-0.2-1.1,0.2-1.4c0.4-0.3,1.1-0.2,1.4,0.2c1,1.3,1.5,2.9,1.5,4.6c0,1.1-0.2,2.1-0.6,3.1C198.3,41.5,197.9,41.7,197.5,41.7z
	"/>
<path class="st0" d="M195.6,33.8c-0.2,0-0.5-0.1-0.6-0.2c-0.1-0.1-0.2-0.2-0.3-0.3c-0.4-0.3-0.5-1-0.2-1.4c0.3-0.4,1-0.5,1.4-0.2
	c0.1,0.1,0.3,0.2,0.4,0.3c0.4,0.4,0.5,1,0.1,1.4C196.2,33.7,195.9,33.8,195.6,33.8z"/>
<path class="st0" d="M86.7,0c0,0-1.1,5.9-4.3,5.9c3.2,0,4.3,5.9,4.3,5.9s1.1-5.9,4.3-5.9C87.8,5.9,86.7,0,86.7,0z"/>
<path class="st0" d="M188.7,104.4l-1-4.8c0-0.1-1.1-5.1-3.9-5.1v-2c2.8,0,3.9-5,3.9-5.1l1-4.8l1,4.8c0,0.1,1.1,5.1,3.9,5.1v2
	c-2.8,0-3.9,5-3.9,5.1L188.7,104.4z M186.6,93.5c0.9,0.8,1.6,1.8,2.1,2.8c0.5-1,1.2-2.1,2.1-2.8c-0.9-0.8-1.6-1.8-2.1-2.8
	C188.2,91.7,187.6,92.7,186.6,93.5z"/>
<path class="st0" d="M91.2,12.9c-0.7,0-1.2-0.6-1.2-1.2s0.6-1.2,1.2-1.2c0.7,0,1.2,0.6,1.2,1.2S91.9,12.9,91.2,12.9z M91.2,11.4
	c-0.1,0-0.2,0.1-0.2,0.2c0,0.3,0.5,0.3,0.5,0C91.4,11.5,91.3,11.4,91.2,11.4z"/>
<path class="st0" d="M18.8,65.1H6.4c-0.6,0-1-0.4-1-1c0-0.6,0.4-1,1-1h12.4c0.6,0,1,0.4,1,1C19.8,64.7,19.4,65.1,18.8,65.1z"/>
<path class="st0" d="M3.1,65.1H1c-0.6,0-1-0.4-1-1c0-0.6,0.4-1,1-1h2.1c0.6,0,1,0.4,1,1C4.1,64.7,3.7,65.1,3.1,65.1z"/>
<path class="st0" d="M4.9,65.1H4.6c-0.6,0-1-0.4-1-1c0-0.6,0.4-1,1-1h0.3c0.6,0,1,0.4,1,1C5.9,64.7,5.4,65.1,4.9,65.1z"/>
<path class="st0" d="M16.8,60.8h-5.1c-0.6,0-1-0.4-1-1s0.4-1,1-1h5.1c0.6,0,1,0.4,1,1S17.4,60.8,16.8,60.8z"/>
<path class="st0" d="M10,60.8H7.9c-0.6,0-1-0.4-1-1s0.4-1,1-1H10c0.6,0,1,0.4,1,1S10.5,60.8,10,60.8z"/>
<path class="st0" d="M20.9,68.6h-9c-0.6,0-1-0.4-1-1s0.4-1,1-1h9c0.6,0,1,0.4,1,1S21.4,68.6,20.9,68.6z"/>
<path class="st0" d="M10,68.6H7.9c-0.6,0-1-0.4-1-1s0.4-1,1-1H10c0.6,0,1,0.4,1,1S10.6,68.6,10,68.6z"/>
<path class="st0" d="M11,69.5c-1,0-1.9-0.8-1.9-1.9c0-0.6,0.4-1,1-1c0.4,0,0.7,0.2,0.9,0.5c0.2-0.3,0.5-0.5,0.9-0.5c0.6,0,1,0.4,1,1
	C12.9,68.7,12,69.5,11,69.5z"/>
<circle class="st0" cx="181.8" cy="93.5" r="1"/>
<circle class="st0" cx="195.6" cy="93.5" r="1"/>
<circle class="st0" cx="188.7" cy="84.2" r="0.5"/>
<circle class="st0" cx="188.7" cy="102.8" r="0.5"/>
<path class="st0" d="M180.9,94.5h-3.9c-0.6,0-1-0.4-1-1s0.4-1,1-1h3.9c0.6,0,1,0.4,1,1S181.4,94.5,180.9,94.5z"/>
<path class="st0" d="M175.5,94.5H175c-0.6,0-1-0.4-1-1s0.4-1,1-1h0.5c0.6,0,1,0.4,1,1S176,94.5,175.5,94.5z"/>
<path class="st0" d="M173.5,94.5h-5.9c-0.6,0-1-0.4-1-1s0.4-1,1-1h5.9c0.6,0,1,0.4,1,1S174.1,94.5,173.5,94.5z"/>
<path class="st1" d="M61.3,91.5c0,0-0.3,1-2,0.6c-0.4-2.2-1.3-6.5-2.3-8.6c0.7-0.1,1.4-0.3,2.1-0.5C60.9,85,63.9,89.1,61.3,91.5z"/>
<path class="st1" d="M43.2,83.4c-0.6,2-2,6.3-2.6,8.7h0c-0.9,0.3-2,0.1-2.6-1.9c-1-2.9,2-5.9,3.5-7.2C42.1,83.2,42.7,83.3,43.2,83.4
	z"/>
<path class="st1" d="M40.3,93.8l7.6-0.1c-0.1,2.2-0.8,5.7-3.6,5.9C40.3,99.8,39.8,95.5,40.3,93.8z"/>
<path class="st1" d="M59.5,93.5c0.8,2,0,6.3-4.3,6.1c-2.9-0.2-3.3-3.7-3.2-6L59.5,93.5z"/>
<path class="st2" d="M58.3,91.1c0.2,0.9,0.3,1.4,0.3,1.4L51,92.6l-4.1,0.1l-7.6,0.1c0-0.2,0.1-0.8,0.4-1.7h0c0.6-2.4,2-6.7,2.6-8.7
	c0.8,0.2,1.7,0.3,2.5,0.4c0,0,0,0,0,0c0,2.6,2,4.7,4.4,4.7c2.4,0,4.4-2.1,4.4-4.7c0,0,0,0,0,0c0.8-0.1,1.6-0.2,2.4-0.4
	C57,84.6,57.9,88.8,58.3,91.1z"/>
<path class="st3" d="M49.7,45.9l2.1,0.2l-1.3-2l3.1,1.9l2.7-0.3l-2.5-3.9v0c11.1,1.6,19.6,9.8,19.6,19.6c0,9.9-8.5,18.1-19.7,19.6
	c-0.8-1.1-2.1-1.9-3.5-1.9c-1.5,0-2.8,0.8-3.6,1.9c-11.4-1.4-20.1-9.7-20.1-19.7c0-9,7.1-16.6,16.8-19.1l2.4,3.5c0,0,1.9,0,2.5,0
	c0.6,0-0.9-1.7-0.9-1.7L49.7,45.9z"/>
<path class="st4" d="M80,41.3l6.7,0.7c0,0-2.1,6.4-7.3,5c-0.4-1.5-1-3-1.6-4.5C78.3,42.4,79.1,41.9,80,41.3z"/>
<path class="st4" d="M18.4,41c0.9,0.6,1.7,1.1,2.3,1.4c-0.5,1.1-1,2.3-1.4,3.5c-5.2,3-8.3-4.3-8.3-4.3L18.4,41z"/>
<path class="st4" d="M42.2,41.4c-9.7,2.4-16.8,10.1-16.8,19.1c0,10,8.8,18.3,20.1,19.7c-0.5,0.8-0.8,1.7-0.9,2.7
	c-0.9-0.1-1.7-0.3-2.5-0.4c-0.6-0.1-1.2-0.3-1.7-0.4C27.5,78.5,18,67.3,18,54.1c0-2.9,0.4-5.7,1.3-8.3c0.4-1.2,0.8-2.3,1.4-3.5h0
	c0.1-0.3,0.3-0.5,0.4-0.8c1.4,0.4,3.2,0.3,5.6-0.5c4.2-1.4,5.1-6.2,3.4-9.9c5.3-3.8,11.9-6.1,19.2-6.1c7.3,0,14.1,2.3,19.4,6.3
	c-1.7,3.7-0.9,8.5,3.4,9.9c2.3,0.8,4.1,0.9,5.5,0.5c0.1,0.3,0.3,0.5,0.4,0.8c0.7,1.4,1.2,2.9,1.6,4.5c0.6,2.3,0.9,4.6,0.9,7.1
	c0,13.2-9.4,24.3-22.3,27.8c-0.7,0.2-1.4,0.4-2.1,0.5c-0.8,0.2-1.6,0.3-2.4,0.4c0-1-0.3-2-0.9-2.8c11.2-1.5,19.7-9.7,19.7-19.6
	c0-9.9-8.5-18.1-19.6-19.6c-1.3-0.2-2.6-0.3-3.9-0.3C46.6,40.5,44.3,40.8,42.2,41.4z"/>
<path class="st5" d="M18.4,41c-1.6-1.2-3.2-3-3.7-5.6c-1-4.9,3.2-7.4,3.2-7.4c6.1-3.3,10.4-0.6,12.1,3.2h0c1.7,3.7,0.8,8.5-3.4,9.9
	c-2.4,0.8-4.2,0.9-5.6,0.5c-0.6-0.2-1.1-0.4-1.5-0.7L18.4,41z"/>
<path class="st5" d="M83.9,35.6c-0.5,2.7-2.3,4.6-3.9,5.7c-0.8,0.6-1.6,1-2.2,1.3c-0.1-0.3-0.3-0.5-0.4-0.8
	c-1.4,0.4-3.2,0.3-5.5-0.5c-4.2-1.4-5.1-6.2-3.4-9.9c1.7-3.8,6.1-6.4,12.1-3.2C80.7,28.2,84.8,30.6,83.9,35.6z"/>
<path class="st6" d="M52.8,40.8l2.5,3.9L52.6,45l-3.1-1.9l1.3,2l-2.1-0.2l-2.5-1.7c0,0,1.4,1.7,0.9,1.7c-0.6,0-2.5,0-2.5,0l-2.4-3.5
	c2.1-0.5,4.4-0.8,6.7-0.8C50.3,40.5,51.6,40.6,52.8,40.8L52.8,40.8z"/>
<path class="st7" d="M53.6,82.8c-1.4,0.2-2.9,0.3-4.4,0.3c-1.5,0-3-0.1-4.4-0.3c0-1,0.3-1.9,0.9-2.7c1.1,0.1,2.2,0.2,3.3,0.2
	c1.3,0,2.5-0.1,3.7-0.3C53.2,80.9,53.6,81.8,53.6,82.8z"/>
<path class="st7" d="M49.2,78.2c1.4,0,2.7,0.7,3.5,1.9c-1.2,0.2-2.5,0.3-3.7,0.3c-1.1,0-2.3-0.1-3.3-0.2
	C46.4,79,47.7,78.2,49.2,78.2z"/>
<path class="st7" d="M49.2,83.1c1.5,0,3-0.1,4.4-0.3c0,0,0,0,0,0c0,2.6-2,4.7-4.4,4.7c-2.4,0-4.4-2.1-4.4-4.7c0,0,0,0,0,0
	C46.2,83,47.7,83.1,49.2,83.1z"/>
<g>
	<g>
		<polygon class="st6" points="20.1,42.1 21.2,42.6 21.5,41.9 20.5,41.3 		"/>
	</g>
	<g>
		<path class="st6" d="M18.7,45.6c-0.9,2.7-1.3,5.6-1.3,8.5c0,13.1,9.5,24.9,23,28.5c0,0,1.8,0.4,1.8,0.4c0,0,2.5,0.4,2.5,0.4
			l0.2-1.2l-2.5-0.4c0,0-1.7-0.4-1.7-0.4c-13-3.5-22.1-14.7-22.1-27.3c0-2.8,0.4-5.5,1.3-8.1c0.3-1.1,0.8-2.2,1.3-3.4l-1.1-0.5
			C19.5,43.3,19,44.5,18.7,45.6z"/>
	</g>
	<g>
		<path class="st6" d="M76.9,42.1l0.4,0.8c0.7,1.4,1.2,2.9,1.6,4.4c0.6,2.2,0.9,4.5,0.9,6.9c0,12.5-9,23.7-21.9,27.2
			c0,0-2,0.5-2,0.5c0,0-2.4,0.4-2.4,0.4l0.2,1.2l2.5-0.4c0,0,2.1-0.5,2.1-0.5C71.6,78.8,81,67.1,81,54.1c0-2.5-0.3-4.9-1-7.2
			c-0.4-1.5-1-3.1-1.7-4.6c0,0-0.4-0.8-0.4-0.8L76.9,42.1z"/>
	</g>
	<g>
		<path class="st6" d="M29.6,30.7l0.7,1c5.4-3.9,11.9-6,18.8-6c6.9,0,13.6,2.2,19,6.2l0.7-1c-5.7-4.2-12.5-6.4-19.7-6.4
			C42,24.5,35.3,26.6,29.6,30.7z"/>
	</g>
	<g>
		<path class="st6" d="M42.1,40.9C32,43.4,25,51.5,25,60.4c0,10.1,8.8,18.8,20.6,20.2l0.1-1C34.4,78.3,26,70,26,60.4
			c0-8.5,6.7-16.2,16.4-18.6c2.1-0.5,4.3-0.8,6.6-0.8c1.3,0,2.6,0.1,3.8,0.3c11.1,1.6,19.2,9.6,19.2,19.1c0,9.6-8.1,17.6-19.3,19.2
			l0.1,1c11.7-1.6,20.2-10,20.2-20.1c0-10-8.4-18.5-20-20.1c-1.3-0.2-2.6-0.3-4-0.3C46.6,40,44.3,40.3,42.1,40.9z"/>
	</g>
	<g>
		<path class="st6" d="M55.4,82.7c1.1,2.2,1.9,6.7,2.3,8.5c0,0,0.1,0.4,0.1,0.7C56.7,91.9,51,92,51,92l-4.1,0.1c0,0-5.7,0.1-6.9,0.1
			c0-0.2,0.1-0.5,0.2-0.9L39,90.9c-0.3,1.3-0.4,1.6-0.4,1.8v0.6l8.2-0.1l4.1-0.1l8.2-0.1L58.9,91c-0.3-1.9-1.2-6.5-2.4-8.8
			L55.4,82.7z"/>
	</g>
	<g>
		<path class="st6" d="M39.1,90.9l1.2,0.3c0.7-2.7,2.3-7.7,2.6-8.7l-1.2-0.4C41.4,83.2,39.8,88.2,39.1,90.9z"/>
	</g>
	<g>
		<path class="st6" d="M36.4,89.4c0.9,2.8,2.7,2.5,3.4,2.3l-0.4-1.2c-0.3,0.1-1.2,0.4-1.9-1.5c-0.9-2.6,2.1-5.4,3.3-6.6l-0.8-0.9
			C38.3,83.1,35.4,86.3,36.4,89.4z"/>
	</g>
	<g>
		<path class="st6" d="M57.6,82.3C59,84,62.1,88,59.9,90l-0.1,0.1l-0.1,0.1c-0.1,0.2-0.4,0.4-1.3,0.2l-0.3,1.2
			c2,0.5,2.6-0.7,2.7-0.9c0.7-0.7,1.1-1.6,1.1-2.6c0-1.8-1.2-4.1-3.4-6.7L57.6,82.3z"/>
	</g>
	<g>
		<path class="st6" d="M39.7,97.7c0.6,0.8,1.7,1.6,3.7,1.5c2.4-0.2,3.9-2.5,4.1-6.5l-1.2-0.1c-0.1,1.9-0.6,5.2-3,5.3
			c-1.2,0.1-2.1-0.3-2.7-1c-1-1.2-1-3.1-0.7-4l-1.2-0.3C38.3,94,38.5,96.3,39.7,97.7z"/>
	</g>
	<g>
		<path class="st6" d="M58,92.7c0.4,1,0.3,2.8-0.6,4c-0.7,0.9-1.7,1.4-3.1,1.3c-2.3-0.1-2.7-3-2.6-5.4l-1.2,0
			c-0.1,4.1,1.2,6.5,3.8,6.6c2.3,0.1,3.5-0.9,4.2-1.8c1.2-1.6,1.2-3.8,0.7-5.1L58,92.7z"/>
	</g>
	<g>
		<path class="st6" d="M45.1,79.8c-0.6,0.9-0.9,1.9-1,3c0,2.9,2.3,5.3,5,5.3c2.8,0,5-2.4,5-5.3v0c0-1.1-0.4-2.2-1-3.1
			c-0.9-1.3-2.4-2.1-4-2.1C47.6,77.6,46,78.4,45.1,79.8z M45.4,82.9c0-0.9,0.3-1.7,0.7-2.4c0.7-1.1,1.8-1.7,3.1-1.7
			c1.2,0,2.3,0.6,3,1.6c0.5,0.7,0.8,1.5,0.8,2.4v0c0,2.2-1.7,4-3.8,4C47.1,86.9,45.4,85.1,45.4,82.9z"/>
	</g>
	<g>
		<path class="st6" d="M48.6,84.9v2.6c0,0.3,0.3,0.6,0.6,0.6c0.3,0,0.6-0.3,0.6-0.6v-2.6c0-0.3-0.3-0.6-0.6-0.6
			C48.8,84.3,48.6,84.6,48.6,84.9z"/>
	</g>
	<g>
		<path class="st6" d="M17.6,27.5c-0.1,0-4.5,2.7-3.5,7.9c0.5,2.9,2.4,4.8,3.9,5.9c0.9,0.7,1.8,1.2,2.4,1.4c0.2,0.1,0.5,0,0.7-0.2
			c0-0.1,0-0.1,0-0.2c0-0.1-0.1-0.2-0.2-0.3c1.6,0.4,3.6,0.3,5.8-0.5c1.8-0.6,3.2-1.8,3.9-3.5c0.9-2.1,0.8-4.7-0.2-7
			c-1-2.2-2.7-3.9-4.8-4.6C23.2,25.6,20.5,26,17.6,27.5z M15.1,35.3C15,34.8,15,34.4,15,34c0-3.6,3-5.5,3.1-5.5
			c2.6-1.4,5.1-1.8,7.2-1c1.9,0.6,3.4,2.1,4.2,4c0.9,2.1,1,4.4,0.2,6.2c-0.6,1.4-1.8,2.5-3.3,3c-2.1,0.7-3.9,0.9-5.3,0.5
			c-0.5-0.1-0.9-0.3-1.3-0.6c-2-1.3-2.3-3.9-1.9-4.9c0.5-1.3,1.6-2.8,3-3.4c0.9-0.4,1.9-0.3,3,0.2c1.1,0.5,1.6,1.3,1.5,2.2
			c0,0.3,0.2,0.5,0.4,0.5c0.3,0,0.5-0.2,0.5-0.4c0.2-1.3-0.6-2.5-2.1-3.2c-1.3-0.6-2.6-0.7-3.8-0.2c-1.7,0.7-3,2.5-3.6,3.9
			c-0.1,0.3-0.2,0.8-0.2,1.4c0,1,0.3,2.3,1.1,3.4C16.7,38.9,15.5,37.4,15.1,35.3z"/>
	</g>
	<g>
		<path class="st6" d="M20.8,34.1c-0.1,0.1-1,1-0.8,2c0.2,0.7,0.9,1.2,2.1,1.5c1,0.2,2.1,0.1,2.9-0.5c0.8-0.6,1.3-1.4,1.4-2.3
			c0-0.3-0.2-0.5-0.4-0.5c-0.3,0-0.5,0.2-0.5,0.4c-0.1,0.6-0.4,1.2-1,1.6c-0.6,0.4-1.4,0.6-2.1,0.4c-0.8-0.2-1.3-0.5-1.4-0.8
			c-0.1-0.4,0.3-0.9,0.5-1c0.2-0.2,0.2-0.5,0-0.7C21.3,33.9,21,33.9,20.8,34.1z"/>
	</g>
	<g>
		<path class="st6" d="M72.9,26.6c-2.1,0.7-3.8,2.3-4.8,4.5c-1.1,2.3-1.2,5-0.2,7.1c0.7,1.7,2.1,2.9,3.9,3.5
			c2.2,0.7,4.1,0.9,5.6,0.5c-0.1,0.1-0.1,0.2-0.1,0.3c0,0.1,0,0.1,0,0.2c0.1,0.3,0.4,0.4,0.6,0.3c0.7-0.3,1.5-0.8,2.3-1.3
			c1.6-1.1,3.6-3.1,4.1-6c1-5.2-3.4-7.9-3.5-7.9C78.1,26.2,75.3,25.8,72.9,26.6z M72.1,40.8c-1.5-0.5-2.7-1.6-3.3-3
			C67.9,36,68,33.6,69,31.5c0.9-2,2.4-3.4,4.3-4c2.1-0.7,4.6-0.3,7.2,1.1c0.1,0.1,3.1,1.9,3.1,5.5c0,0.4,0,0.9-0.1,1.3
			c-0.4,2-1.6,3.6-2.7,4.6c0.1-0.2,0.3-0.4,0.4-0.6c0.5-0.9,0.7-1.9,0.7-2.7c0-0.5-0.1-1-0.2-1.3c-0.6-1.4-1.8-3.2-3.6-3.9
			c-1.2-0.5-2.5-0.4-3.8,0.2c-1.4,0.7-2.2,1.8-2.1,3.1c0.1,1.3,1,2.4,2.3,2.9c0.3,0.1,0.5-0.1,0.6-0.3c0.1-0.3-0.1-0.5-0.3-0.6
			c-0.9-0.3-1.6-1.1-1.6-2c-0.1-0.9,0.5-1.6,1.6-2.1c1.1-0.5,2.1-0.6,3-0.2c1.4,0.6,2.5,2.1,3,3.4c0.2,0.6,0.3,2-0.4,3.2
			c-0.4,0.8-1.3,1.9-2.9,2.3C75.9,41.7,74.1,41.5,72.1,40.8z"/>
	</g>
	<g>
		<path class="st6" d="M77.1,34.3c-0.2,0.2-0.2,0.5,0,0.7c0.2,0.1,0.6,0.6,0.5,1c-0.1,0.3-0.6,0.6-1.4,0.8c-0.5,0.1-1,0.1-1.5-0.1
			c-0.3-0.1-0.5,0-0.6,0.3c-0.1,0.3,0.1,0.5,0.3,0.6c0.6,0.2,1.3,0.2,2,0.1c1.2-0.3,2-0.8,2.1-1.5c0.3-1-0.7-1.9-0.8-2
			C77.6,34.1,77.2,34.1,77.1,34.3z"/>
	</g>
	<g>
		<path class="st6" d="M18.3,40.4l-8.2,0.5l0.3,0.8c0.1,0.2,1.7,4.1,4.8,5.2c1.4,0.5,2.8,0.3,4.3-0.6L19,45.3
			c-1.2,0.7-2.2,0.8-3.3,0.5c-1.8-0.6-3.1-2.6-3.7-3.7c1.4-0.1,6.4-0.4,6.4-0.4l1.2-0.1l-0.1-1.2L18.3,40.4z"/>
	</g>
	<g>
		<path class="st6" d="M79.6,41.9l0.3,0c0,0,4.7,0.5,5.9,0.6c-0.7,1.5-2.6,4.9-6.3,3.9l-0.3,1.2c4.5,1.2,7.2-3,8-5.4l0.2-0.7
			L80,40.7l-0.3,0L79.6,41.9z"/>
	</g>
	<g>
		<path class="st6" d="M52.5,41c0,0,1.7,2.6,2.1,3.4c-0.7,0.1-1.8,0.2-1.9,0.2c-0.2-0.1-3-1.8-3-1.8l-0.5,0.5c0,0,0.5,0.7,0.9,1.3
			c-0.6-0.1-1.1-0.1-1.2-0.1c-0.2-0.1-2.4-1.7-2.4-1.7L46,43.4c0.3,0.4,0.6,0.8,0.8,1.1c-0.5,0-1.6,0-1.9,0
			c-0.2-0.3-2.3-3.4-2.3-3.4L42.4,41l-0.6,0.4l0.1,0.2l2.6,3.7h2.7c0.2,0,0.4-0.1,0.5-0.3c0,0,0.1-0.1,0.1-0.2c0-0.1,0-0.1,0-0.2
			c0.4,0.3,1,0.7,1,0.7l3,0.3c0,0-0.7-1-0.8-1.2c0.8,0.5,1.8,1.1,1.8,1.1L56,45l-2.8-4.4L52.5,41z"/>
	</g>
	<g>
		<path class="st6" d="M46.8,34.8l0.6,0.5c0,0,1.2-1.6,1.6-2c0.4,0.5,1.9,2,1.9,2l0.6-0.5l-2.5-2.6L46.8,34.8z"/>
	</g>
</g>
<circle class="st6" cx="35.7" cy="57.6" r="2.1"/>
<circle class="st6" cx="62.3" cy="57.6" r="2.1"/>
<ellipse class="st8" cx="29.1" cy="63.3" rx="4.1" ry="2.3"/>
<ellipse class="st8" cx="68.2" cy="63.5" rx="4.1" ry="2.4"/>
<circle class="st9" cx="63.9" cy="32.9" r="1.5"/>
<circle class="st9" cx="33.8" cy="32.6" r="1.5"/>
<text transform="matrix(1 0 0 1 84.5276 67.6356)" class="st0 st10 st11">暂时没有数据哦~</text>
</svg>
