<?xml version="1.0" encoding="utf-8"?>
<!-- Generator: Adobe Illustrator 19.0.0, SVG Export Plug-In . SVG Version: 6.00 Build 0)  -->
<svg version="1.1" id="图层_1" xmlns="http://www.w3.org/2000/svg" xmlns:xlink="http://www.w3.org/1999/xlink" x="0px" y="0px"
	 viewBox="0 0 16 15" style="enable-background:new 0 0 16 15;" xml:space="preserve">
<style type="text/css">
	.st0{fill:#FF2D86;}
</style>
<path class="st0" d="M3.4,1c0.7,0,1.4,0.3,1.8,0.7c0.6,0.6,0.8,1.5,0.5,2.4C5.5,4.9,4.8,5.5,4.5,5.7L3.8,6.2l0.3,0.8
	c1.2,2.8,4.5,4.1,4.9,4.3l1,0.4l0.3-1c0.1-0.4,0.5-1.2,1.4-1.5c0.4-0.1,0.7-0.2,1-0.2c1.1,0,1.8,0.7,2.1,1.4c0.4,1,0.3,2.5-1.2,3.2
	C13,13.8,12.3,14,11.5,14c-1.8,0-3.9-0.8-5.8-2.3C2.6,9.4,0.7,5.6,1,3.5c0.2-1.2,0.8-2.1,1.7-2.4C2.9,1,3.2,1,3.4,1 M3.4,0
	C3.1,0,2.7,0.1,2.4,0.2C1.1,0.6,0.3,1.8,0,3.4c-0.3,2.4,1.6,6.6,5,9.2c1.8,1.3,4.2,2.5,6.4,2.5c0.9,0,1.7-0.2,2.5-0.6c0,0,0,0,0,0
	c1.9-1,2.3-3,1.7-4.5c-0.5-1.1-1.5-2-3-2c-0.4,0-0.9,0.1-1.4,0.3c-1.2,0.4-1.8,1.4-2,2.2C8.3,9.9,5.9,8.6,5,6.5
	c0.5-0.4,1.4-1.1,1.7-2.1C7.1,3.2,6.8,1.9,6,1C5.3,0.4,4.4,0,3.4,0L3.4,0z"/>
<path class="st0" d="M9,6.5C8.7,6.5,8.5,6.2,8.5,6V1.9c0-0.3,0.2-0.5,0.5-0.5s0.5,0.2,0.5,0.5V6C9.5,6.2,9.3,6.5,9,6.5z"/>
<path class="st0" d="M12,6.5c-0.3,0-0.5-0.2-0.5-0.5V1.9c0-0.3,0.2-0.5,0.5-0.5s0.5,0.2,0.5,0.5V6C12.5,6.2,12.3,6.5,12,6.5z"/>
</svg>
