<?xml version="1.0" encoding="utf-8"?>
<!-- Generator: Adobe Illustrator 19.0.0, SVG Export Plug-In . SVG Version: 6.00 Build 0)  -->
<svg version="1.1" id="图层_1" xmlns="http://www.w3.org/2000/svg" xmlns:xlink="http://www.w3.org/1999/xlink" x="0px" y="0px"
	 viewBox="0 0 16 16.5" style="enable-background:new 0 0 16 16.5;" xml:space="preserve">
<style type="text/css">
	.st0{fill:#45C8DC;}
</style>
<path class="st0" d="M8,16.5c-0.5,0-1,0-1.4-0.1c-0.3-0.1-0.4-0.3-0.4-0.6c0.1-0.3,0.3-0.4,0.6-0.4c0.8,0.2,1.7,0.2,2.5,0
	c0.3-0.1,0.5,0.1,0.6,0.4c0.1,0.3-0.1,0.5-0.4,0.6C9,16.5,8.5,16.5,8,16.5z"/>
<path class="st0" d="M14.7,9.8c-0.3,0-0.5-0.2-0.5-0.5c0-2-0.9-3.8-2.5-4.9c-0.2-0.2-0.3-0.5-0.1-0.7c0.2-0.2,0.5-0.3,0.7-0.1
	c1.8,1.4,2.9,3.5,2.9,5.7C15.2,9.6,14.9,9.8,14.7,9.8z"/>
<path class="st0" d="M1.3,9.8c-0.3,0-0.5-0.2-0.5-0.5c0-2.3,1-4.4,2.9-5.7c0.2-0.2,0.5-0.1,0.7,0.1c0.2,0.2,0.1,0.5-0.1,0.7
	c-1.6,1.2-2.5,3-2.5,4.9C1.8,9.6,1.6,9.8,1.3,9.8z"/>
<path class="st0" d="M8,1c0.9,0,1.7,0.7,1.7,1.7S8.9,4.3,8,4.3S6.3,3.6,6.3,2.7S7.1,1,8,1 M8,0C6.5,0,5.3,1.2,5.3,2.7
	c0,1.5,1.2,2.7,2.7,2.7s2.7-1.2,2.7-2.7C10.7,1.2,9.5,0,8,0L8,0z"/>
<path class="st0" d="M2.7,11.7c0.9,0,1.7,0.7,1.7,1.7S3.6,15,2.7,15S1,14.3,1,13.3S1.7,11.7,2.7,11.7 M2.7,10.7
	c-1.5,0-2.7,1.2-2.7,2.7C0,14.8,1.2,16,2.7,16c1.5,0,2.7-1.2,2.7-2.7C5.3,11.9,4.1,10.7,2.7,10.7L2.7,10.7z"/>
<path class="st0" d="M13.3,11.7c0.9,0,1.7,0.7,1.7,1.7S14.3,15,13.3,15s-1.7-0.7-1.7-1.7S12.4,11.7,13.3,11.7 M13.3,10.7
	c-1.5,0-2.7,1.2-2.7,2.7c0,1.5,1.2,2.7,2.7,2.7c1.5,0,2.7-1.2,2.7-2.7C16,11.9,14.8,10.7,13.3,10.7L13.3,10.7z"/>
</svg>
